<?xml version="1.0" encoding="UTF-8"?>
<svg id="Layer_1" data-name="Layer 1" xmlns="http://www.w3.org/2000/svg" viewBox="0 0 500 500">
  <defs>
    <style>
      .cls-1 {
        fill: #fff;
      }
    </style>
  </defs>
  <rect class="cls-1" width="500" height="500" rx="133.78" ry="133.78"/>
  <g>
    <path d="M431.45,349.06l-54.52-94.21-4.93-8.48-32.49-54.72c-6.21-10.16-17.75-13.8-27.85-11.14-6.51,1.73-12.37,6.06-15.87,12.92l-29.58,48.81c-1.97,3.94-2.86,8.28-2.61,12.52.1,1.68.35,3.35.74,4.98.59,2.46,1.63,4.83,3.01,7.05l20.51,32.83.49.79,15.13,23.96,1.77,2.76c.64.99,1.18,1.97,1.68,3.01t.05.1v.05c5.82,13.01-1.77,29.23-15.53,31.16-.3,0-.59.05-.89.05h-41.95c-4.73,0-26.82-.15-42.49-.25-7.1-.05-13.75,3.55-17.6,9.51l-17.4,26.92c-10.7,16.47.89,38.26,20.51,38.6l55.36,1.08c8.77.2,16.96-4.24,21.64-11.63l20.9-32.93c1.04-1.63,2.76-2.56,4.68-2.56h100.96l15.87.05c19.33-.79,30.32-24.6,20.41-41.21Z"/>
    <path d="M274.29,179.67l-31.3,49.45-47.08,74.24-29.48,46.49c-4.68,7.39-12.87,11.83-21.64,11.63l-55.36-1.08c-19.62-.35-31.21-22.14-20.51-38.6l39.19-60.54,106.93-52.5,59.26-29.09Z"/>
    <path d="M295.09,146.84l-20.8,32.83-59.26,29.09-106.93,52.5,121.18-187.19c10.45-16.12,34.41-14.99,43.23,2.07l23.66,45.75c4.09,7.94,3.7,17.4-1.08,24.95Z"/>
  </g>
</svg>
